<svg width="23" height="22" viewBox="0 0 23 22" fill="none" xmlns="http://www.w3.org/2000/svg">
<path d="M20.5417 11C20.5417 16.0625 16.4376 20.1666 11.375 20.1666C6.3124 20.1666 2.20834 16.0625 2.20834 11M8.16668 2.41046C9.16524 2.03732 10.2463 1.83331 11.375 1.83331C12.5037 1.83331 13.5848 2.03732 14.5833 2.41046" stroke="#66667E" stroke-width="1.5" stroke-linecap="round" stroke-linejoin="round"/>
<path d="M7.26676 4.98046L7.7507 5.95635C7.81669 6.0922 7.99267 6.22251 8.14117 6.24746L9.01831 6.3944C9.57924 6.48866 9.71124 6.89898 9.30704 7.30375L8.62511 7.99131C8.50962 8.10775 8.44638 8.33232 8.48212 8.49312L8.67735 9.34421C8.83133 10.018 8.47663 10.2786 7.88544 9.92647L7.06328 9.43578C6.91479 9.34705 6.67007 9.34705 6.51884 9.43578L5.69668 9.92647C5.10825 10.2786 4.75078 10.0152 4.90477 9.34421L5.1 8.49312C5.13575 8.33232 5.0725 8.10775 4.95701 7.99131L4.27509 7.30375C3.87363 6.89898 4.00286 6.48866 4.56381 6.3944L5.44096 6.24746C5.58669 6.22251 5.76267 6.0922 5.82866 5.95635L6.31262 4.98046C6.57658 4.45093 7.00553 4.45093 7.26676 4.98046Z" stroke="#66667E" stroke-width="1.5" stroke-linecap="round" stroke-linejoin="round"/>
<path d="M16.4334 4.98046L16.9173 5.95635C16.9833 6.0922 17.1593 6.22251 17.3078 6.24746L18.185 6.3944C18.7459 6.48866 18.8779 6.89898 18.4737 7.30375L17.7918 7.99131C17.6763 8.10775 17.613 8.33232 17.6488 8.49312L17.844 9.34421C17.998 10.018 17.6433 10.2786 17.0521 9.92647L16.2299 9.43578C16.0814 9.34705 15.8368 9.34705 15.6855 9.43578L14.8634 9.92647C14.275 10.2786 13.9175 10.0152 14.0715 9.34421L14.2667 8.49312C14.3024 8.33232 14.2392 8.10775 14.1237 7.99131L13.4418 7.30375C13.0403 6.89898 13.1696 6.48866 13.7305 6.3944L14.6076 6.24746C14.7534 6.22251 14.9294 6.0922 14.9954 5.95635L15.4793 4.98046C15.7433 4.45093 16.1722 4.45093 16.4334 4.98046Z" stroke="#66667E" stroke-width="1.5" stroke-linecap="round" stroke-linejoin="round"/>
<path d="M7.70834 13.75C8.54445 14.8632 9.87562 15.5833 11.375 15.5833C12.8744 15.5833 14.2056 14.8632 15.0417 13.75" stroke="#66667E" stroke-width="1.5" stroke-linecap="round" stroke-linejoin="round"/>
</svg>
