<svg width="25" height="24" viewBox="0 0 25 24" fill="none" xmlns="http://www.w3.org/2000/svg">
<path d="M10.875 9.25524C8.48131 7.95835 5.95556 5.71428 3.875 2M12.4905 4.41901C10.4555 3.0835 7.97242 3.64165 6.94438 5.66567C5.91634 7.68969 6.73264 10.4131 8.76763 11.7486C10.61 12.9577 14.6422 14.2079 17.875 10.745C14.8456 9.45488 14.5255 5.75451 12.4905 4.41901Z" stroke="white" stroke-width="1.5" stroke-linecap="round" stroke-linejoin="round"/>
<path d="M4.875 11C4.23593 11.4709 3.875 12.0054 3.875 12.572C3.875 14.4652 7.90444 16 12.875 16C17.8456 16 21.875 14.4652 21.875 12.572C21.875 12.0054 21.5141 11.4709 20.875 11" stroke="white" stroke-width="1.5" stroke-linecap="round"/>
<path d="M21.875 13C21.875 16.5766 19.3686 19.7147 16.6701 21.4822C16.1152 21.8457 15.4554 22 14.7921 22H10.9579C10.2946 22 9.63476 21.8457 9.07986 21.4822C6.3814 19.7147 3.875 16.5766 3.875 13" stroke="white" stroke-width="1.5" stroke-linecap="round"/>
</svg>
