<svg width="23" height="22" viewBox="0 0 23 22" fill="none" xmlns="http://www.w3.org/2000/svg">
<path d="M17.125 1.83331V3.66665M6.125 1.83331V3.66665" stroke="#66667E" stroke-width="1.5" stroke-linecap="round" stroke-linejoin="round"/>
<path d="M11.6209 11.9167H11.6291M11.6209 15.5834H11.6291M15.2834 11.9167H15.2917M7.95833 11.9167H7.96655M7.95833 15.5834H7.96655" stroke="#66667E" stroke-width="2" stroke-linecap="round" stroke-linejoin="round"/>
<path d="M3.83333 7.33331H19.4167" stroke="#66667E" stroke-width="1.5" stroke-linecap="round" stroke-linejoin="round"/>
<path d="M2.91667 11.2229C2.91667 7.22878 2.91667 5.23167 4.06445 3.99084C5.21223 2.75 7.05954 2.75 10.7542 2.75H12.4958C16.1905 2.75 18.0378 2.75 19.1856 3.99084C20.3333 5.23167 20.3333 7.22878 20.3333 11.2229V11.6937C20.3333 15.6879 20.3333 17.685 19.1856 18.9259C18.0378 20.1667 16.1905 20.1667 12.4958 20.1667H10.7542C7.05954 20.1667 5.21223 20.1667 4.06445 18.9259C2.91667 17.685 2.91667 15.6879 2.91667 11.6937V11.2229Z" stroke="#66667E" stroke-width="1.5" stroke-linecap="round" stroke-linejoin="round"/>
<path d="M3.375 7.33331H19.875" stroke="#66667E" stroke-width="1.5" stroke-linecap="round" stroke-linejoin="round"/>
</svg>
