<svg width="23" height="22" viewBox="0 0 23 22" fill="none" xmlns="http://www.w3.org/2000/svg">
<path d="M6.15444 14.1915C4.85757 14.9637 1.45725 16.5404 3.52827 18.5136C4.53995 19.4773 5.6667 20.1667 7.0833 20.1667H15.1667C16.5833 20.1667 17.7101 19.4773 18.7217 18.5136C20.7927 16.5404 17.3924 14.9637 16.0955 14.1915C13.0544 12.3806 9.19559 12.3806 6.15444 14.1915Z" stroke="#66667E" stroke-width="1.5" stroke-linecap="round" stroke-linejoin="round"/>
<path d="M15.25 5.95831C15.25 8.23649 13.4032 10.0833 11.125 10.0833C8.84683 10.0833 7 8.23649 7 5.95831C7 3.68014 8.84683 1.83331 11.125 1.83331C13.4032 1.83331 15.25 3.68014 15.25 5.95831Z" stroke="#66667E" stroke-width="1.5"/>
</svg>
