<svg width="20" height="20" viewBox="0 0 20 20" fill="none" xmlns="http://www.w3.org/2000/svg">
<path d="M10 17.5C14.1421 17.5 17.5 14.1421 17.5 10C17.5 5.85786 14.1421 2.5 10 2.5C5.85786 2.5 2.5 5.85786 2.5 10C2.5 14.1421 5.85786 17.5 10 17.5Z" stroke="white" stroke-linecap="round" stroke-linejoin="round"/>
<path d="M10 5C10.8777 5 11.7399 5.23103 12.5 5.66988C13.2601 6.10872 13.8913 6.7399 14.3302 7.5C14.769 8.2601 15 9.12233 15 10C15 10.8777 14.769 11.7399 14.3302 12.5C13.8913 13.2601 13.2601 13.8912 12.5 14.3302C11.7399 14.769 10.8777 15 10 15C9.12233 15 8.26009 14.769 7.5 14.3302C6.7399 13.8912 6.10872 13.2601 5.66988 12.5L10 10V5Z" stroke="white" stroke-linecap="round" stroke-linejoin="round"/>
</svg>
